<?xml version="1.0" standalone="no"?><!DOCTYPE svg PUBLIC "-//W3C//DTD SVG 1.1//EN" "http://www.w3.org/Graphics/SVG/1.1/DTD/svg11.dtd"><svg t="1603519913982" class="icon" viewBox="0 0 1024 1024" version="1.1" xmlns="http://www.w3.org/2000/svg" p-id="11201" xmlns:xlink="http://www.w3.org/1999/xlink" width="128" height="128"><defs><style type="text/css"></style></defs><path d="M896 512a384 384 0 1 0-384 384 384 384 0 0 0 384-384z m64 0A448 448 0 1 1 512 64a448 448 0 0 1 448 448z" p-id="11202" fill="#ffffff"></path><path d="M713.28 425.28a32 32 0 0 1 45.44 45.44l-224 224a32 32 0 0 1-45.44 0l-224-224a32 32 0 0 1 45.44-45.44L512 626.88z" p-id="11203" fill="#ffffff"></path></svg>