<?xml version="1.0" standalone="no"?><!DOCTYPE svg PUBLIC "-//W3C//DTD SVG 1.1//EN" "http://www.w3.org/Graphics/SVG/1.1/DTD/svg11.dtd"><svg t="1603202218257" class="icon" viewBox="0 0 1024 1024" version="1.1" xmlns="http://www.w3.org/2000/svg" p-id="7728" width="32" height="32" xmlns:xlink="http://www.w3.org/1999/xlink"><defs><style type="text/css"></style></defs><path d="M928 768h-64V224c0-17.67-14.33-32-32-32H224v-64c0-17.67-14.33-32-32-32s-32 14.33-32 32v64H96c-17.67 0-32 14.33-32 32s14.33 32 32 32h64v544c0 17.67 14.33 32 32 32h608v64c0 17.67 14.33 32 32 32s32-14.33 32-32v-64h64c17.67 0 32-14.33 32-32s-14.33-32-32-32z m-160 0H224V256h576v512h-32z" p-id="7729" fill="#1296db"></path></svg>