<?xml version="1.0" standalone="no"?><!DOCTYPE svg PUBLIC "-//W3C//DTD SVG 1.1//EN" "http://www.w3.org/Graphics/SVG/1.1/DTD/svg11.dtd"><svg t="1603201614108" class="icon" viewBox="0 0 1609 1024" version="1.1" xmlns="http://www.w3.org/2000/svg" p-id="5512" width="50.28125" height="32" xmlns:xlink="http://www.w3.org/1999/xlink"><defs><style type="text/css"></style></defs><path d="M867.035429 0c97.792 0 133.266286 10.24 169.033142 29.257143 35.84 19.163429 63.853714 47.250286 82.944 83.017143l6.802286 13.531428c14.701714 32.036571 22.528 69.924571 22.528 155.501715v461.385142c0 97.792-10.24 133.266286-29.257143 169.033143a199.387429 199.387429 0 0 1-83.017143 82.944l-13.531428 6.802286c-32.036571 14.701714-69.924571 22.528-155.501714 22.528H281.307429c-97.792 0-133.266286-10.24-169.033143-29.257143A199.387429 199.387429 0 0 1 29.257143 911.652571l-6.802286-13.531428c-13.677714-29.769143-21.357714-64.512-22.381714-137.874286L0 281.234286c0-97.718857 10.24-133.193143 29.257143-168.96A199.387429 199.387429 0 0 1 112.347429 29.257143L125.805714 22.528c29.769143-13.677714 64.512-21.357714 137.874286-22.381714L867.108571 0z m714.24 182.125714c17.993143 22.016 27.867429 49.590857 27.867428 78.043429v503.954286a123.172571 123.172571 0 0 1-201.142857 95.305142L1287.314286 760.685714a219.428571 219.428571 0 0 1-80.457143-169.837714V433.517714a219.428571 219.428571 0 0 1 80.457143-169.691428l120.685714-98.889143a123.099429 123.099429 0 0 1 173.275429 17.188571zM867.035429 146.285714H281.307429l-25.819429 0.219429c-46.006857 0.804571-60.050286 4.242286-74.24 11.776a53.174857 53.174857 0 0 0-22.966857 22.966857c-8.192 15.36-11.483429 30.573714-11.922286 86.454857v488.594286l0.365714 23.04c1.170286 37.522286 4.608 50.468571 11.556572 63.414857 5.485714 10.24 12.726857 17.481143 22.966857 22.966857 14.189714 7.533714 28.233143 10.971429 74.24 11.776l25.819429 0.219429h585.728c67.072 0 83.529143-3.145143 100.059428-11.995429a53.174857 53.174857 0 0 0 22.966857-22.966857c7.533714-14.189714 10.971429-28.233143 11.776-74.24l0.219429-25.819429V281.307429c0-67.072-3.145143-83.529143-11.995429-100.059429a53.174857 53.174857 0 0 0-22.966857-22.966857c-14.189714-7.533714-28.233143-10.971429-74.24-11.776L867.035429 146.285714zM1462.857143 308.955429l-82.944 68.022857a73.142857 73.142857 0 0 0-26.185143 47.250285l-0.585143 9.289143V590.994286a73.142857 73.142857 0 0 0 19.968 50.249143l6.875429 6.363428L1462.857143 715.264V308.955429z" p-id="5513" fill="#62E7FF"></path></svg>