<?xml version="1.0" standalone="no"?><!DOCTYPE svg PUBLIC "-//W3C//DTD SVG 1.1//EN" "http://www.w3.org/Graphics/SVG/1.1/DTD/svg11.dtd"><svg t="1603534242886" class="icon" viewBox="0 0 1024 1024" version="1.1" xmlns="http://www.w3.org/2000/svg" p-id="13906" xmlns:xlink="http://www.w3.org/1999/xlink" width="32" height="32"><defs><style type="text/css"></style></defs><path d="M625.7 533.9v68.8c0 62.4-51 113.4-113.4 113.4-62.4 0-113.4-51-113.4-113.4v-68.4" fill="#EE803F" p-id="13907" data-spm-anchor-id="a313x.7781069.0.i16" class="selected"></path><path d="M398.8 383.3v-99c0-62.4 51-113.4 113.4-113.4 62.4 0 113.4 51 113.4 113.4v101.4" fill="#EE803F" p-id="13908" data-spm-anchor-id="a313x.7781069.0.i15" class="selected"></path><path d="M499.9 803.5h26.6v54.7h-26.6zM372 431.8h281.4v56.3H372z" fill="#E0E7EA" p-id="13909"></path><path d="M649.8 738c36.9-36.9 57.2-85.7 57.2-137.6v-71c0-5.5-4.5-10-10-10s-10 4.5-10 10v71c0 46.5-18.2 90.3-51.4 123.4-33.1 33.1-76.9 51.3-123.4 51.3s-90.3-18.2-123.4-51.3c-33.1-33.1-51.3-76.9-51.3-123.4v-71c0-5.5-4.5-10-10-10s-10 4.5-10 10v71c0 51.8 20.3 100.7 57.2 137.6 26.3 26.3 58.8 44.2 94.1 52.3v77.9h-93.2c-5.5 0-10 4.5-10 10s4.5 10 10 10h273.9c5.5 0 10-4.5 10-10s-4.5-10-10-10h-92.2v-78.3c34.7-8.2 66.6-26 92.5-51.9zM537.3 868.2h-48.5v-74.4c7.7 0.9 15.6 1.4 23.5 1.4 8.4 0 16.8-0.5 25-1.6v74.6z" fill="" p-id="13910" data-spm-anchor-id="a313x.7781069.0.i22" class="selected"></path><path d="M709.4 418.8h-23.6c-1.2-11-10.6-19.5-21.9-19.5h-2.5V284.9c0-82.3-66.9-149.2-149.2-149.2-82.3 0-149.2 66.9-149.2 149.2v114.4h-1.6c-11.3 0-20.6 8.6-21.9 19.5H315c-12.1 0-22 9.2-22 20.4v41.9c0 11.3 9.9 20.4 22 20.4h24.5c1.2 11 10.6 19.5 21.9 19.5h1.6v81c0 82.3 66.9 149.2 149.2 149.2 82.3 0 149.2-66.9 149.2-149.2v-80.8h2.5c11.3 0 20.6-8.6 21.9-19.5h23.6c12.1 0 22-9.2 22-20.4v-41.9c0-11.4-9.9-20.6-22-20.6z m-396.3 62.1v-41.4c0.2-0.3 0.9-0.7 2-0.7h24.4v42.8h-24.4c-1 0-1.7-0.4-2-0.7z m70-196c0-34.3 13.5-66.7 38-91.2s56.9-38 91.2-38c34.3 0 66.7 13.5 91.2 38s38 56.9 38 91.2v114.4H383.1V284.9zM641.4 602c0 34.3-13.5 66.7-38 91.2s-56.9 38-91.2 38-66.7-13.5-91.2-38-38-56.9-38-91.2v-80.8h258.3V602z m24.5-102.8c0 1.1-0.9 2-2 2H361.5c-1.1 0-2-0.9-2-2v-77.9c0-1.1 0.9-2 2-2h302.4c1.1 0 2 0.9 2 2v77.9z m45.5-18.3c-0.2 0.2-0.9 0.7-2 0.7h-23.5v-42.8h23.5c1.1 0 1.8 0.4 2 0.7v41.4z" fill="" p-id="13911"></path><path d="M465.2 191.2m-10 0a10 10 0 1 0 20 0 10 10 0 1 0-20 0Z" fill="" p-id="13912"></path><path d="M442 167.5m-10 0a10 10 0 1 0 20 0 10 10 0 1 0-20 0Z" fill="" p-id="13913"></path><path d="M489.3 167.5m-10 0a10 10 0 1 0 20 0 10 10 0 1 0-20 0Z" fill="" p-id="13914"></path><path d="M465.2 238.4m-10 0a10 10 0 1 0 20 0 10 10 0 1 0-20 0Z" fill="" p-id="13915"></path><path d="M442 214.8m-10 0a10 10 0 1 0 20 0 10 10 0 1 0-20 0Z" fill="" p-id="13916"></path><path d="M489.3 214.8m-10 0a10 10 0 1 0 20 0 10 10 0 1 0-20 0Z" fill="" p-id="13917"></path><path d="M465.2 285.7m-10 0a10 10 0 1 0 20 0 10 10 0 1 0-20 0Z" fill="" p-id="13918"></path><path d="M442 262.1m-10 0a10 10 0 1 0 20 0 10 10 0 1 0-20 0Z" fill="" p-id="13919"></path><path d="M489.3 262.1m-10 0a10 10 0 1 0 20 0 10 10 0 1 0-20 0Z" fill="" p-id="13920"></path><path d="M465.2 333m-10 0a10 10 0 1 0 20 0 10 10 0 1 0-20 0Z" fill="" p-id="13921"></path><path d="M442 309.3m-10 0a10 10 0 1 0 20 0 10 10 0 1 0-20 0Z" fill="" p-id="13922"></path><path d="M489.3 309.3m-10 0a10 10 0 1 0 20 0 10 10 0 1 0-20 0Z" fill="" p-id="13923"></path><path d="M465.2 380.2m-10 0a10 10 0 1 0 20 0 10 10 0 1 0-20 0Z" fill="" p-id="13924"></path><path d="M442 356.6m-10 0a10 10 0 1 0 20 0 10 10 0 1 0-20 0Z" fill="" p-id="13925"></path><path d="M489.3 356.6m-10 0a10 10 0 1 0 20 0 10 10 0 1 0-20 0Z" fill="" p-id="13926"></path><path d="M512.5 191.2m-10 0a10 10 0 1 0 20 0 10 10 0 1 0-20 0Z" fill="" p-id="13927"></path><path d="M536.5 167.5m-10 0a10 10 0 1 0 20 0 10 10 0 1 0-20 0Z" fill="" p-id="13928"></path><path d="M512.5 238.4m-10 0a10 10 0 1 0 20 0 10 10 0 1 0-20 0Z" fill="" p-id="13929"></path><path d="M536.5 214.8m-10 0a10 10 0 1 0 20 0 10 10 0 1 0-20 0Z" fill="" p-id="13930"></path><path d="M512.5 285.7m-10 0a10 10 0 1 0 20 0 10 10 0 1 0-20 0Z" fill="" p-id="13931"></path><path d="M536.5 262.1m-10 0a10 10 0 1 0 20 0 10 10 0 1 0-20 0Z" fill="" p-id="13932"></path><path d="M512.5 333m-10 0a10 10 0 1 0 20 0 10 10 0 1 0-20 0Z" fill="" p-id="13933"></path><path d="M536.5 309.3m-10 0a10 10 0 1 0 20 0 10 10 0 1 0-20 0Z" fill="" p-id="13934"></path><path d="M512.5 380.2m-10 0a10 10 0 1 0 20 0 10 10 0 1 0-20 0Z" fill="" p-id="13935"></path><path d="M536.5 356.6m-10 0a10 10 0 1 0 20 0 10 10 0 1 0-20 0Z" fill="" p-id="13936"></path><path d="M559.8 191.2m-10 0a10 10 0 1 0 20 0 10 10 0 1 0-20 0Z" fill="" p-id="13937"></path><path d="M583.8 167.5m-10 0a10 10 0 1 0 20 0 10 10 0 1 0-20 0Z" fill="" p-id="13938"></path><path d="M559.8 238.4m-10 0a10 10 0 1 0 20 0 10 10 0 1 0-20 0Z" fill="" p-id="13939"></path><path d="M583.8 214.8m-10 0a10 10 0 1 0 20 0 10 10 0 1 0-20 0Z" fill="" p-id="13940"></path><path d="M559.8 285.7m-10 0a10 10 0 1 0 20 0 10 10 0 1 0-20 0Z" fill="" p-id="13941"></path><path d="M583.8 262.1m-10 0a10 10 0 1 0 20 0 10 10 0 1 0-20 0Z" fill="" p-id="13942"></path><path d="M559.8 333m-10 0a10 10 0 1 0 20 0 10 10 0 1 0-20 0Z" fill="" p-id="13943"></path><path d="M583.8 309.3m-10 0a10 10 0 1 0 20 0 10 10 0 1 0-20 0Z" fill="" p-id="13944"></path><path d="M559.8 380.2m-10 0a10 10 0 1 0 20 0 10 10 0 1 0-20 0Z" fill="" p-id="13945"></path><path d="M583.8 356.6m-10 0a10 10 0 1 0 20 0 10 10 0 1 0-20 0Z" fill="" p-id="13946"></path><path d="M607 191.2m-10 0a10 10 0 1 0 20 0 10 10 0 1 0-20 0Z" fill="" p-id="13947"></path><path d="M607 238.4m-10 0a10 10 0 1 0 20 0 10 10 0 1 0-20 0Z" fill="" p-id="13948"></path><path d="M631.1 214.8m-10 0a10 10 0 1 0 20 0 10 10 0 1 0-20 0Z" fill="" p-id="13949"></path><path d="M607 285.7m-10 0a10 10 0 1 0 20 0 10 10 0 1 0-20 0Z" fill="" p-id="13950"></path><path d="M631.1 262.1m-10 0a10 10 0 1 0 20 0 10 10 0 1 0-20 0Z" fill="" p-id="13951"></path><path d="M607 333m-10 0a10 10 0 1 0 20 0 10 10 0 1 0-20 0Z" fill="" p-id="13952"></path><path d="M631.1 309.3m-10 0a10 10 0 1 0 20 0 10 10 0 1 0-20 0Z" fill="" p-id="13953"></path><path d="M607 380.2m-10 0a10 10 0 1 0 20 0 10 10 0 1 0-20 0Z" fill="" p-id="13954"></path><path d="M631.1 356.6m-10 0a10 10 0 1 0 20 0 10 10 0 1 0-20 0Z" fill="" p-id="13955"></path><path d="M418 191.2m-10 0a10 10 0 1 0 20 0 10 10 0 1 0-20 0Z" fill="" p-id="13956"></path><path d="M418 238.4m-10 0a10 10 0 1 0 20 0 10 10 0 1 0-20 0Z" fill="" p-id="13957"></path><path d="M394.7 214.8m-10 0a10 10 0 1 0 20 0 10 10 0 1 0-20 0Z" fill="" p-id="13958"></path><path d="M418 285.7m-10 0a10 10 0 1 0 20 0 10 10 0 1 0-20 0Z" fill="" p-id="13959"></path><path d="M394.7 262.1m-10 0a10 10 0 1 0 20 0 10 10 0 1 0-20 0Z" fill="" p-id="13960"></path><path d="M418 333m-10 0a10 10 0 1 0 20 0 10 10 0 1 0-20 0Z" fill="" p-id="13961"></path><path d="M394.7 309.3m-10 0a10 10 0 1 0 20 0 10 10 0 1 0-20 0Z" fill="" p-id="13962"></path><path d="M418 380.2m-10 0a10 10 0 1 0 20 0 10 10 0 1 0-20 0Z" fill="" p-id="13963"></path><path d="M394.7 356.6m-10 0a10 10 0 1 0 20 0 10 10 0 1 0-20 0Z" fill="" p-id="13964"></path></svg>